<svg width="202" height="59" viewBox="0 0 202 59" fill="none" xmlns="http://www.w3.org/2000/svg">
<path fill-rule="evenodd" clip-rule="evenodd" d="M18.4091 3.6416L12.2727 7.28331V36.4177L12.2729 36.4176L12.2728 36.4179L36.819 50.9852L42.9556 47.3433L18.4094 32.7762L18.4091 32.7761L18.4094 32.7759L18.4091 3.6416Z" fill="white"/>
<path fill-rule="evenodd" clip-rule="evenodd" d="M6.1365 10.9253L0 14.5671V43.7014L0.000300357 43.7013L0.000100119 43.7017L24.5463 58.2689L30.6829 54.627L6.1366 40.0599L6.1365 40.0598L6.1366 40.0597L6.1365 10.9253Z" fill="white"/>
<path fill-rule="evenodd" clip-rule="evenodd" d="M30.6838 54.6278L36.8204 50.986V21.8517L36.82 21.8518L36.8203 21.8516L12.274 7.28418L6.13745 10.926L30.6837 25.4932L30.6839 25.4934H30.6837L30.6838 54.6278Z" fill="white"/>
<path fill-rule="evenodd" clip-rule="evenodd" d="M42.9571 47.3436L49.0937 43.7019V14.5675L49.0934 14.5678L49.0935 14.5674L24.5472 0L18.4106 3.64191L42.957 18.2091L42.9572 18.2092H42.957L42.9571 47.3436Z" fill="white"/>
<path d="M65.2354 28.1754H66.4573C67.1236 28.1754 67.7653 28.1564 68.3825 28.1184C68.9995 28.0803 69.5549 27.9535 70.0485 27.7378C70.5421 27.5222 70.937 27.1797 71.2332 26.7102C71.5293 26.241 71.6775 25.5624 71.6775 24.6742C71.6775 23.7608 71.5355 23.057 71.2518 22.5621C70.9678 22.0675 70.5915 21.7059 70.1223 21.4776C69.6536 21.2493 69.0981 21.116 68.4565 21.0779C67.8147 21.0399 67.1483 21.0209 66.4573 21.0209H65.2354V28.1754V28.1754ZM57.979 15.0081H69.0858C70.5915 15.0081 71.9675 15.1921 73.2139 15.56C74.4603 15.9278 75.5278 16.4922 76.4164 17.2533C77.3049 18.0145 77.9961 18.9914 78.4897 20.1837C78.9833 21.3761 79.23 22.797 79.23 24.4459C79.23 27.8457 78.3786 30.3192 76.6754 31.8668C74.9726 33.4145 72.5289 34.1883 69.3451 34.1883H65.2354V43.7022H57.979V15.0081ZM88.3382 27.8709H89.0417C89.634 27.8709 90.2264 27.8329 90.8189 27.7568C91.4111 27.6806 91.948 27.5158 92.4292 27.2622C92.9105 27.0083 93.3054 26.6468 93.614 26.1775C93.9225 25.7081 94.0767 25.0801 94.0767 24.2938C94.0767 23.5073 93.9225 22.8795 93.614 22.41C93.3054 21.9406 92.9105 21.579 92.4292 21.3253C91.948 21.0718 91.4111 20.9068 90.8189 20.8307C90.2264 20.7544 89.634 20.7165 89.0417 20.7165H88.3382V27.8709ZM104.295 43.7022H95.2616L88.4123 32.6661H88.3382V43.7022H81.0817V15.0081H91.9296C93.3117 15.0081 94.5951 15.1795 95.7798 15.5219C96.9645 15.8644 97.9888 16.3971 98.8527 17.1202C99.7166 17.8432 100.395 18.7629 100.889 19.8792C101.383 20.9955 101.629 22.3149 101.629 23.8371C101.629 24.8265 101.5 25.7715 101.241 26.6721C100.982 27.5729 100.593 28.3847 100.075 29.1077C99.5562 29.8307 98.9144 30.4397 98.1492 30.9345C97.3842 31.4292 96.5079 31.7654 95.5207 31.943L104.295 43.7022V43.7022ZM112.144 43.7022H104.888V15.0081H112.144V43.7022ZM137.469 37.3851V43.7022H113.552L126.769 21.3253H115.81V15.0081H138.912L125.769 37.3851H137.469ZM143.392 15.0081H150.538L156.202 30.3446L162.2 15.0081H169.419L173.64 43.7022H166.384L164.347 27.1859H164.273L157.572 43.7022H154.684L148.279 27.1859H148.205L145.873 43.7022H138.653L143.392 15.0081V15.0081ZM187.524 23.8752H187.45L184.451 33.0086H190.486L187.524 23.8752ZM182.452 38.7169L180.527 43.7022H172.826L183.563 15.0081H191.486L202 43.7022H194.262L192.448 38.7169H182.452V38.7169Z" fill="white"/>
</svg>
