<svg width="180" height="52" viewBox="0 0 180 52" fill="none" xmlns="http://www.w3.org/2000/svg">
<path fill-rule="evenodd" clip-rule="evenodd" d="M16.4034 3.25049L10.9353 6.50039V32.5002L10.9355 32.5001L10.9354 32.5005L32.8082 45.5004L38.2765 42.2504L16.4036 29.2506L16.4034 29.2504L16.4036 29.2503L16.4034 3.25049Z" fill="#306BF5"/>
<path fill-rule="evenodd" clip-rule="evenodd" d="M5.46817 9.75L0 12.9999V38.9998L0.000267645 38.9997L8.9215e-05 39L21.8729 52L27.3412 48.75L5.46826 35.7501L5.46817 35.75L5.46826 35.7499L5.46817 9.75Z" fill="#306BF5"/>
<path fill-rule="evenodd" clip-rule="evenodd" d="M27.3413 48.75L32.8095 45.5001V19.5002L32.8092 19.5003L32.8095 19.5001L10.9365 6.5L5.46826 9.75004L27.3412 22.7499L27.3414 22.7501H27.3412L27.3413 48.75Z" fill="#FFD600"/>
<path fill-rule="evenodd" clip-rule="evenodd" d="M38.2777 42.25L43.7459 39.0001V13.0002L43.7456 13.0005L43.7457 13.0001L21.8728 0L16.4045 3.25008L38.2776 16.2501L38.2777 16.2501H38.2776L38.2777 42.25Z" fill="#FFD600"/>
<path d="M58.1307 25.1433H59.2195C59.8132 25.1433 60.385 25.1263 60.935 25.0924C61.4848 25.0584 61.9797 24.9452 62.4195 24.7528C62.8594 24.5604 63.2113 24.2547 63.4752 23.8357C63.7391 23.417 63.8711 22.8114 63.8711 22.0188C63.8711 21.2037 63.7446 20.5756 63.4918 20.1339C63.2387 19.6925 62.9034 19.3698 62.4853 19.1661C62.0676 18.9623 61.5727 18.8434 61.0009 18.8094C60.429 18.7754 59.8352 18.7585 59.2195 18.7585H58.1307V25.1433V25.1433ZM51.6646 13.3926H61.5617C62.9034 13.3926 64.1296 13.5568 65.2402 13.8852C66.3509 14.2134 67.3021 14.7171 68.0939 15.3963C68.8857 16.0755 69.5015 16.9474 69.9414 18.0114C70.3813 19.0755 70.6011 20.3435 70.6011 21.8151C70.6011 24.849 69.8424 27.0564 68.3247 28.4376C66.8073 29.8187 64.6298 30.5092 61.7928 30.5092H58.1307V38.9995H51.6646V13.3926ZM78.7173 24.8715H79.3441C79.8719 24.8715 80.3999 24.8376 80.9278 24.7697C81.4555 24.7017 81.9339 24.5546 82.3627 24.3283C82.7916 24.1018 83.1435 23.7791 83.4185 23.3604C83.6934 22.9414 83.8308 22.381 83.8308 21.6793C83.8308 20.9774 83.6934 20.4171 83.4185 19.9981C83.1435 19.5793 82.7916 19.2566 82.3627 19.0302C81.9339 18.8039 81.4555 18.6567 80.9278 18.5888C80.3999 18.5207 79.8719 18.4869 79.3441 18.4869H78.7173V24.8715ZM92.9363 38.9995H84.8866L78.7833 29.1508H78.7173V38.9995H72.2511V13.3926H81.9175C83.1491 13.3926 84.2928 13.5455 85.3484 13.8512C86.4041 14.1568 87.3169 14.6322 88.0867 15.2775C88.8565 15.9227 89.4612 16.7435 89.9011 17.7396C90.3411 18.7358 90.561 19.9133 90.561 21.2717C90.561 22.1547 90.4456 22.998 90.2146 23.8017C89.9836 24.6056 89.6372 25.3301 89.1754 25.9752C88.7135 26.6205 88.1416 27.1639 87.4597 27.6055C86.7781 28.047 85.9973 28.347 85.1175 28.5055L92.9363 38.9995V38.9995ZM99.9307 38.9995H93.4645V13.3926H99.9307V38.9995ZM122.497 33.3621V38.9995H101.185L112.962 19.0302H103.197V13.3926H123.783L112.072 33.3621H122.497ZM127.775 13.3926H134.143L139.19 27.0791L144.535 13.3926H150.968L154.729 38.9995H148.263L146.448 24.2602H146.382L140.411 38.9995H137.838L132.13 24.2602H132.064L129.986 38.9995H123.553L127.775 13.3926V13.3926ZM167.101 21.3057H167.035L164.362 29.4564H169.74L167.101 21.3057ZM162.581 34.5507L160.866 38.9995H154.003L163.571 13.3926H170.631L180 38.9995H173.105L171.488 34.5507H162.581V34.5507Z" fill="#5E6E7C"/>
</svg>
