<svg width="72" height="32" viewBox="0 0 72 32" fill="none" xmlns="http://www.w3.org/2000/svg">
<rect width="71.4894" height="32" rx="2" fill="white"/>
<path d="M10.2143 20.0916C10.2143 21.5451 11.3971 22.7278 12.8505 22.7278H21.1495C22.6029 22.7278 23.7857 21.5451 23.7857 20.0916V11.7927C23.7857 10.3393 22.6029 9.15649 21.1495 9.15649H12.8505C11.3971 9.15649 10.2143 10.3393 10.2143 11.7927V20.0916Z" fill="url(#paint0_linear)"/>
<path d="M19.2371 9.8283L12.7264 13.0288L22.3005 12.8549L21.13 10.4742C20.7858 9.77273 19.9378 9.48407 19.2371 9.8283Z" fill="#8BC53F"/>
<path d="M20.7331 11.004L12.2422 13.1401L22.7869 13.4157L22.4499 12.0309C22.2587 11.2732 21.4901 10.8135 20.7331 11.004Z" fill="#008F4C"/>
<path d="M21.5818 19.0063C22.1238 19.0063 22.5632 18.5669 22.5632 18.0249C22.5632 17.4829 22.1238 17.0435 21.5818 17.0435C21.0397 17.0435 20.6003 17.4829 20.6003 18.0249C20.6003 18.5669 21.0397 19.0063 21.5818 19.0063Z" fill="white"/>
<path d="M21.2989 12.9668H12.2609C12.1346 12.9668 12.0322 13.0693 12.0322 13.1948C12.0322 13.3204 12.1346 13.4229 12.2609 13.4229H21.2989C22.6613 13.4229 23.7691 14.5465 23.7691 15.927L23.7936 16.2178V14.3805C23.2784 13.5333 22.3525 12.9668 21.2989 12.9668Z" fill="white"/>
<g opacity="0.65">
<path opacity="0.65" d="M11.9773 21.1511C12.244 21.1511 12.4601 20.935 12.4601 20.6683C12.4601 20.4017 12.244 20.1855 11.9773 20.1855C11.7107 20.1855 11.4945 20.4017 11.4945 20.6683C11.4945 20.935 11.7107 21.1511 11.9773 21.1511Z" fill="#BA3827"/>
<path opacity="0.65" d="M11.8316 19.9649C12.0992 19.9052 12.2692 19.6459 12.2112 19.3856C12.1532 19.1254 11.8892 18.9627 11.6216 19.0224C11.3539 19.082 11.1839 19.3414 11.2419 19.6016C11.2999 19.8619 11.5639 20.0245 11.8316 19.9649Z" fill="#BA3827"/>
<path opacity="0.65" d="M13.1096 21.6475C13.3762 21.6475 13.5924 21.4313 13.5924 21.1647C13.5924 20.898 13.3762 20.6819 13.1096 20.6819C12.8429 20.6819 12.6268 20.898 12.6268 21.1647C12.6268 21.4313 12.8429 21.6475 13.1096 21.6475Z" fill="#BA3827"/>
<path opacity="0.65" d="M12.9826 20.4028C13.2492 20.4028 13.4654 20.1867 13.4654 19.92C13.4654 19.6534 13.2492 19.4373 12.9826 19.4373C12.7159 19.4373 12.4998 19.6534 12.4998 19.92C12.4998 20.1867 12.7159 20.4028 12.9826 20.4028Z" fill="#BA3827"/>
</g>
<path d="M29.2817 18.8837H27.8204L30.5677 11.5178H31.8537L34.6017 18.8837H33.1397L32.6136 17.3639H29.8078L29.2817 18.8837ZM32.146 16.0779L31.2107 13.3891L30.2755 16.0779H32.146Z" fill="#00527D"/>
<path d="M37.9336 13.4468C38.2684 13.4468 38.5881 13.5153 38.8927 13.6517C39.1965 13.7881 39.4635 13.9794 39.6937 14.2247C39.9232 14.4701 40.1065 14.7609 40.2429 15.0957C40.3793 15.4313 40.4478 15.7972 40.4478 16.1948C40.4478 16.5924 40.3793 16.959 40.2429 17.2939C40.1065 17.6295 39.9232 17.9196 39.6937 18.1649C39.4635 18.4103 39.1965 18.6015 38.8927 18.7379C38.5889 18.8743 38.2692 18.9429 37.9336 18.9429C37.7077 18.9429 37.5107 18.9154 37.3433 18.8613C37.1759 18.8072 37.0294 18.7487 36.9045 18.686C36.7645 18.608 36.6397 18.5185 36.5307 18.4168V20.7549H35.1863V13.5052H36.18L36.4138 14.0313C36.5307 13.9223 36.6671 13.8249 36.823 13.739C36.9558 13.669 37.1152 13.6027 37.3022 13.5406C37.4891 13.4785 37.6998 13.4468 37.9336 13.4468ZM36.4138 16.1948C36.4138 16.6394 36.5423 16.9937 36.7999 17.2585C37.0575 17.5234 37.3765 17.6562 37.759 17.6562C38.1407 17.6562 38.4604 17.5234 38.718 17.2585C38.9757 16.9937 39.1041 16.6386 39.1041 16.1948C39.1041 15.7503 38.9757 15.396 38.718 15.1311C38.4611 14.8663 38.1414 14.7335 37.759 14.7335C37.3772 14.7335 37.0575 14.8663 36.7999 15.1311C36.5423 15.396 36.4138 15.7503 36.4138 16.1948Z" fill="#00527D"/>
<path d="M46.2347 17.247C46.1647 17.4498 46.0572 17.6526 45.9129 17.8546C45.7686 18.0574 45.5932 18.2385 45.3868 18.398C45.1804 18.5575 44.9466 18.6881 44.6854 18.7899C44.4241 18.8909 44.142 18.9421 43.8374 18.9421C43.4708 18.9421 43.1259 18.87 42.8026 18.7257C42.4793 18.5813 42.1949 18.385 41.9489 18.1353C41.7035 17.8857 41.5087 17.5956 41.3643 17.2643C41.22 16.9331 41.1478 16.5766 41.1478 16.1948C41.1478 15.8131 41.22 15.4566 41.3643 15.1253C41.5087 14.7941 41.7035 14.504 41.9489 14.2543C42.1942 14.0046 42.4785 13.8083 42.8026 13.664C43.1259 13.5197 43.4708 13.4475 43.8374 13.4475C44.1881 13.4475 44.5194 13.5139 44.8311 13.646C45.1429 13.7787 45.4157 13.9657 45.6495 14.2074C45.8833 14.4492 46.068 14.7393 46.2051 15.0784C46.3415 15.4176 46.4101 15.79 46.4101 16.1948C46.4101 16.2576 46.4058 16.3175 46.3986 16.376C46.3906 16.4344 46.3827 16.4907 46.3755 16.5456C46.3675 16.6083 46.3596 16.6668 46.3524 16.7209H42.6106C42.6727 16.9858 42.8055 17.208 43.0082 17.387C43.211 17.5667 43.4874 17.6562 43.8381 17.6562C44.0171 17.6562 44.1672 17.6367 44.2884 17.5977C44.409 17.5587 44.5122 17.5118 44.598 17.4577C44.6918 17.3957 44.7698 17.3249 44.8318 17.247H46.2347ZM43.8381 14.7328C43.4874 14.7328 43.2009 14.8345 42.9787 15.0366C42.7564 15.2394 42.6142 15.4891 42.5522 15.7849H45.1241C45.0613 15.4891 44.9192 15.2394 44.6976 15.0366C44.4754 14.8345 44.1889 14.7328 43.8381 14.7328Z" fill="#00527D"/>
<path d="M48.7482 18.8837H47.4038V11.5178H48.7482V18.8837Z" fill="#00527D"/>
<path d="M51.0287 17.1885C51.0597 17.3682 51.1456 17.5198 51.2856 17.6446C51.4256 17.7695 51.6132 17.8315 51.847 17.8315C52.0808 17.8315 52.2663 17.7709 52.4027 17.6504C52.5391 17.5299 52.6076 17.3949 52.6076 17.247C52.6076 17.1221 52.5391 17.0247 52.4027 16.9547C52.2663 16.8847 52.0967 16.8205 51.8939 16.762C51.6911 16.7036 51.471 16.643 51.2336 16.5809C50.9955 16.5189 50.7754 16.4272 50.5733 16.306C50.3705 16.1854 50.2009 16.0296 50.0645 15.8383C49.9282 15.6471 49.8596 15.396 49.8596 15.0842C49.8596 14.8663 49.9043 14.6577 49.9938 14.4585C50.0833 14.2601 50.2139 14.0862 50.3857 13.9382C50.5567 13.7903 50.7595 13.6712 50.9933 13.5817C51.2271 13.4923 51.492 13.4475 51.7886 13.4475C52.4352 13.4475 52.9324 13.6034 53.2795 13.9151C53.6259 14.2269 53.8308 14.6166 53.8936 15.0842H52.6076C52.5766 14.9673 52.4929 14.8504 52.3565 14.7335C52.2201 14.6166 52.0505 14.5581 51.8477 14.5581C51.645 14.5581 51.4869 14.6086 51.3743 14.7104C51.261 14.8121 51.2047 14.9363 51.2047 15.0842C51.2047 15.2091 51.2726 15.3065 51.4097 15.3765C51.5461 15.4465 51.7157 15.5107 51.9185 15.5692C52.1212 15.6276 52.3413 15.6904 52.5788 15.7561C52.8162 15.8225 53.0363 15.9177 53.2391 16.0426C53.4419 16.1674 53.6114 16.3291 53.7478 16.5275C53.8842 16.726 53.9528 16.9858 53.9528 17.3047C53.9528 17.5234 53.9059 17.7312 53.8128 17.9304C53.719 18.1288 53.5869 18.3028 53.4152 18.4507C53.2434 18.5986 53.0349 18.7177 52.7895 18.8072C52.5441 18.8967 52.2692 18.9414 51.9654 18.9414C51.2639 18.9414 50.7321 18.7819 50.3691 18.4623C50.0068 18.1426 49.7983 17.7182 49.7434 17.1878H51.0287V17.1885Z" fill="#00527D"/>
<path d="M55.6465 12.8037C55.4437 12.8037 55.2662 12.728 55.1146 12.5757C54.9624 12.4234 54.8866 12.2466 54.8866 12.0438C54.8866 11.841 54.9624 11.6635 55.1146 11.512C55.2669 11.3597 55.4437 11.2839 55.6465 11.2839C55.8493 11.2839 56.0268 11.3597 56.1784 11.512C56.3299 11.6642 56.4064 11.841 56.4064 12.0438C56.4064 12.2466 56.3306 12.4241 56.1784 12.5757C56.0268 12.728 55.8493 12.8037 55.6465 12.8037ZM56.2895 18.8836H54.9451V13.5052H56.2895V18.8836Z" fill="#00527D"/>
<path d="M60.3235 13.4468C60.6432 13.4468 60.9355 13.4995 61.2003 13.6048C61.4651 13.7102 61.6932 13.8617 61.8844 14.0609C62.0749 14.2594 62.2236 14.4997 62.329 14.7797C62.4343 15.0604 62.487 15.3757 62.487 15.7265V18.883H61.1426V15.9018C61.1426 15.5511 61.0394 15.2689 60.833 15.0539C60.6266 14.8396 60.3596 14.732 60.032 14.732C59.7043 14.732 59.4373 14.8396 59.2309 15.0539C59.0245 15.2682 58.9213 15.5511 58.9213 15.9018V18.883H57.5769V13.5045H58.5706L58.8044 14.0306C58.9372 13.9216 59.0808 13.8242 59.2367 13.7383C59.3695 13.6683 59.5268 13.6019 59.7101 13.5399C59.8927 13.4785 60.0969 13.4468 60.3235 13.4468Z" fill="#00527D"/>
<defs>
<linearGradient id="paint0_linear" x1="22.4836" y1="9.74696" x2="11.2263" y2="22.4657" gradientUnits="userSpaceOnUse">
<stop stop-color="#FCB94D"/>
<stop offset="0.3065" stop-color="#F7903F"/>
<stop offset="0.7747" stop-color="#F1562B"/>
<stop offset="1" stop-color="#EE4023"/>
</linearGradient>
</defs>
</svg>
