<svg width="72" height="32" viewBox="0 0 72 32" fill="none" xmlns="http://www.w3.org/2000/svg">
<rect x="0.46814" width="71.4894" height="32" rx="2" fill="white"/>
<g clip-path="url(#clip0)">
<path d="M52.8378 27.6748V27.7365H52.8975C52.9087 27.7367 52.9197 27.734 52.9295 27.7286C52.9334 27.726 52.9365 27.7224 52.9386 27.7183C52.9407 27.7142 52.9417 27.7096 52.9415 27.705C52.9417 27.7005 52.9407 27.6961 52.9386 27.692C52.9365 27.688 52.9333 27.6846 52.9295 27.6821C52.9198 27.6765 52.9087 27.6737 52.8975 27.6742H52.8378V27.6748ZM52.8981 27.6312C52.9237 27.6296 52.949 27.6367 52.9698 27.6512C52.9781 27.6578 52.9847 27.6661 52.9891 27.6756C52.9934 27.6851 52.9954 27.6954 52.9949 27.7058C52.9953 27.7147 52.9937 27.7236 52.9902 27.7319C52.9867 27.7402 52.9815 27.7476 52.9747 27.7538C52.9587 27.7672 52.9386 27.7753 52.9175 27.7768L52.9975 27.8647H52.9359L52.8623 27.7774H52.8384V27.8647H52.7869V27.6313H52.8989L52.8981 27.6312ZM52.8821 27.9452C52.9091 27.9454 52.9359 27.9402 52.9607 27.9298C52.9845 27.9199 53.0063 27.9057 53.0247 27.888C53.0431 27.8703 53.0578 27.8493 53.068 27.8263C53.089 27.7774 53.089 27.7225 53.068 27.6736C53.0577 27.6506 53.043 27.6297 53.0247 27.6119C53.0063 27.5942 52.9845 27.58 52.9607 27.5701C52.9357 27.5602 52.909 27.5553 52.8821 27.5556C52.8547 27.5553 52.8275 27.5603 52.8021 27.5701C52.7777 27.5798 52.7555 27.594 52.7367 27.6119C52.7084 27.6399 52.6892 27.6753 52.6816 27.7137C52.674 27.752 52.6783 27.7917 52.6939 27.8278C52.7037 27.851 52.7182 27.872 52.7367 27.8895C52.7555 27.9074 52.7777 27.9216 52.8021 27.9313C52.8274 27.9417 52.8546 27.947 52.8821 27.9467V27.9452ZM52.8821 27.4994C52.9524 27.4994 53.02 27.526 53.0701 27.5735C53.0943 27.5963 53.1135 27.6235 53.1267 27.6535C53.1404 27.6844 53.1475 27.7175 53.1475 27.7511C53.1475 27.7846 53.1404 27.8178 53.1267 27.8486C53.1132 27.8785 53.094 27.9057 53.0701 27.9287C53.0456 27.9514 53.017 27.9697 52.9858 27.9827C52.953 27.9961 52.9177 28.0029 52.8821 28.0027C52.8461 28.003 52.8104 27.9962 52.7771 27.9827C52.7456 27.97 52.7168 27.9517 52.6922 27.9287C52.6683 27.9048 52.6493 27.8768 52.6363 27.846C52.6227 27.8152 52.6156 27.782 52.6156 27.7485C52.6156 27.7149 52.6227 27.6817 52.6363 27.6509C52.6496 27.6209 52.6688 27.5937 52.693 27.5708C52.7172 27.5475 52.7461 27.5291 52.7779 27.5169C52.8112 27.5034 52.8469 27.4966 52.8829 27.4968L52.8821 27.4994ZM28.3829 26.5982C28.3829 26.1532 28.6853 25.7877 29.1796 25.7877C29.6519 25.7877 29.9706 26.1375 29.9706 26.5982C29.9706 27.0589 29.6519 27.4087 29.1796 27.4087C28.6853 27.4087 28.3829 27.0432 28.3829 26.5982ZM30.509 26.5982V25.3319H29.938V25.6404C29.7568 25.4124 29.4821 25.2694 29.1085 25.2694C28.3725 25.2694 27.7949 25.8259 27.7949 26.5988C27.7949 27.3717 28.3722 27.9282 29.1085 27.9282C29.482 27.9282 29.7568 27.7851 29.938 27.5573V27.8647H30.5084V26.5982H30.509ZM49.8037 26.5982C49.8037 26.1532 50.1061 25.7877 50.6005 25.7877C51.0733 25.7877 51.3915 26.1375 51.3915 26.5982C51.3915 27.0589 51.0733 27.4087 50.6005 27.4087C50.1063 27.4087 49.8037 27.0432 49.8037 26.5982ZM51.9304 26.5982V24.3154H51.3589V25.6404C51.1778 25.4124 50.9031 25.2694 50.5295 25.2694C49.7935 25.2694 49.2159 25.8259 49.2159 26.5988C49.2159 27.3717 49.7931 27.9282 50.5295 27.9282C50.9031 27.9282 51.1778 27.7851 51.3589 27.5573V27.8647H51.9304V26.5982ZM37.5963 25.7616C37.9643 25.7616 38.2007 25.984 38.261 26.3756H36.8984C36.9594 26.0101 37.1896 25.7616 37.5965 25.7616H37.5963ZM37.6079 25.268C36.8383 25.268 36.2999 25.8079 36.2999 26.5974C36.2999 27.4024 36.8599 27.9268 37.6461 27.9268C38.0416 27.9268 38.4039 27.8317 38.7226 27.5721L38.4427 27.1641C38.2226 27.3338 37.9423 27.4289 37.6788 27.4289C37.3108 27.4289 36.9757 27.2647 36.8933 26.8089H38.8432C38.8488 26.7404 38.8546 26.6713 38.8546 26.5973C38.8488 25.808 38.3426 25.2679 37.6076 25.2679L37.6079 25.268ZM44.5019 26.5973C44.5019 26.1523 44.8043 25.7867 45.2986 25.7867C45.7709 25.7867 46.0896 26.1366 46.0896 26.5973C46.0896 27.058 45.7709 27.4078 45.2986 27.4078C44.8043 27.4078 44.5018 27.0423 44.5018 26.5973H44.5019ZM46.6279 26.5973V25.3319H46.0571V25.6404C45.8754 25.4124 45.6013 25.2694 45.2277 25.2694C44.4917 25.2694 43.9141 25.8259 43.9141 26.5988C43.9141 27.3717 44.4914 27.9282 45.2277 27.9282C45.6013 27.9282 45.8754 27.7851 46.0571 27.5573V27.8647H46.628V26.5982L46.6279 26.5973ZM41.2771 26.5973C41.2771 27.3652 41.8317 27.9267 42.6781 27.9267C43.0736 27.9267 43.3372 27.8419 43.6221 27.6248L43.3479 27.1798C43.1335 27.3284 42.9083 27.4078 42.6599 27.4078C42.204 27.4024 41.8688 27.0847 41.8688 26.5973C41.8688 26.1099 42.204 25.7923 42.6599 25.7867C42.9077 25.7867 43.1328 25.8662 43.3479 26.0147L43.6221 25.5697C43.3367 25.3527 43.0732 25.2679 42.6781 25.2679C41.8317 25.2679 41.2771 25.8292 41.2771 26.5973ZM48.6388 25.2679C48.3093 25.2679 48.0947 25.4164 47.9464 25.6388V25.3319H47.3805V27.8633H47.9522V26.4443C47.9522 26.0253 48.1389 25.7926 48.5122 25.7926C48.6344 25.7909 48.7558 25.8125 48.8693 25.8563L49.0453 25.3374C48.9189 25.2895 48.7541 25.2683 48.6384 25.2683L48.6388 25.2679ZM33.3322 25.5332C33.0575 25.3586 32.6789 25.2683 32.2613 25.2683C31.596 25.2683 31.1677 25.5757 31.1677 26.0787C31.1677 26.4915 31.4866 26.7461 32.0738 26.8256L32.3436 26.8626C32.6567 26.905 32.8045 26.9844 32.8045 27.1274C32.8045 27.3231 32.5965 27.4348 32.206 27.4348C31.8104 27.4348 31.525 27.313 31.3325 27.17L31.0642 27.5992C31.3773 27.8216 31.7728 27.9278 32.2012 27.9278C32.9596 27.9278 33.3991 27.5835 33.3991 27.1015C33.3991 26.6565 33.0532 26.4238 32.4816 26.3443L32.2125 26.3067C31.9653 26.2758 31.7672 26.2279 31.7672 26.0582C31.7672 25.8731 31.954 25.7618 32.2672 25.7618C32.6024 25.7618 32.9269 25.8836 33.086 25.9788L33.3332 25.5338L33.3322 25.5332ZM40.7003 25.2688C40.3709 25.2688 40.1563 25.4173 40.0087 25.6397V25.3319H39.4428V27.8633H40.0138V26.4443C40.0138 26.0253 40.2005 25.7926 40.5738 25.7926C40.696 25.7909 40.8174 25.8125 40.9309 25.8563L41.1069 25.3374C40.9805 25.2895 40.8157 25.2683 40.7 25.2683L40.7003 25.2688ZM35.8274 25.3319H34.8936V24.5639H34.3164V25.3319H33.7837V25.835H34.3164V26.9898C34.3164 27.5772 34.5528 27.927 35.2284 27.927C35.4762 27.927 35.7616 27.853 35.9428 27.7313L35.7778 27.2599C35.6074 27.3551 35.4207 27.403 35.2722 27.403C34.9868 27.403 34.8936 27.2334 34.8936 26.9793V25.8355H35.8274V25.3319ZM27.29 27.8639V26.2752C27.29 25.6769 26.8944 25.2743 26.2568 25.269C25.9216 25.2636 25.5759 25.3641 25.3338 25.7193C25.1527 25.4386 24.8672 25.269 24.466 25.269C24.1855 25.269 23.9114 25.3484 23.6968 25.6448V25.3319H23.1253V27.8633H23.7013V26.4597C23.7013 26.0203 23.9541 25.7867 24.3445 25.7867C24.7237 25.7867 24.9156 26.025 24.9156 26.4541V27.863H25.4928V26.4594C25.4928 26.02 25.7564 25.7864 26.1354 25.7864C26.5253 25.7864 26.7114 26.0247 26.7114 26.4538V27.8627L27.29 27.8639Z" fill="#231F20"/>
<path d="M53.1632 19.4429V19.0728H53.0632L52.9475 19.3268L52.8325 19.0728H52.7322V19.4429H52.8032V19.1641L52.9114 19.4047H52.985L53.0931 19.1634V19.4429H53.1635H53.1632ZM52.5288 19.4429V19.1361H52.6568V19.0737H52.3298V19.1361H52.4578V19.4429H52.5282H52.5288Z" fill="#F79410"/>
<path d="M41.7973 21.0309H33.1435V6.03857H41.7974L41.7973 21.0309Z" fill="#FF5F00"/>
<path d="M33.6921 13.534C33.6921 10.4929 35.1693 7.78375 37.4694 6.03789C35.7283 4.71441 33.5748 3.99612 31.3576 3.99928C25.8957 3.99928 21.4681 8.26807 21.4681 13.534C21.4681 18.8 25.8957 23.0688 31.3576 23.0688C33.5749 23.072 35.7284 22.3537 37.4696 21.0302C35.1696 19.2846 33.6921 16.5754 33.6921 13.534Z" fill="#EB001B"/>
<path d="M53.4721 13.5348C53.4721 18.8007 49.0446 23.0695 43.5827 23.0695C41.3651 23.0727 39.2114 22.3544 37.4699 21.0309C39.7707 19.285 41.2478 16.5761 41.2478 13.5348C41.2478 10.4934 39.7707 7.78448 37.4699 6.03862C39.2113 4.71519 41.365 3.99691 43.5825 4.00001C49.0444 4.00001 53.472 8.2688 53.472 13.5348" fill="#F79E1B"/>
</g>
<defs>
<clipPath id="clip0">
<rect width="32" height="24" fill="white" transform="translate(21.4681 4)"/>
</clipPath>
</defs>
</svg>
