<svg width="72" height="32" viewBox="0 0 72 32" fill="none" xmlns="http://www.w3.org/2000/svg">
<rect width="71.4894" height="32" rx="2" fill="white"/>
<path fill-rule="evenodd" clip-rule="evenodd" d="M59.915 14.7993C60.2564 15.2859 60.2907 16.0527 59.9284 16.6469C59.6049 17.1777 57.669 19.2144 57.039 19.8689C56.4929 20.4374 55.7559 21.0067 55.0304 21.0067H39.8405C37.7876 21.0067 37.6637 20.3133 37.6637 18.7458V12.387C37.6637 10.786 38.138 10.3232 39.5399 10.3232H55.0304C55.7559 10.3232 56.4015 10.6921 57.143 11.4432C57.7725 12.0806 59.6531 14.425 59.915 14.7993Z" fill="#33CCCC"/>
<path fill-rule="evenodd" clip-rule="evenodd" d="M59.915 14.7993C60.2564 15.2859 60.2907 16.0527 59.9284 16.6469C59.6049 17.1777 57.669 19.2144 57.039 19.8689C56.4929 20.4374 55.7559 21.0067 55.0304 21.0067H39.8405C37.7876 21.0067 37.6637 20.3133 37.6637 18.7458V12.387C37.6637 10.786 38.138 10.3232 39.5399 10.3232H55.0304C55.7559 10.3232 56.4015 10.6921 57.143 11.4432C57.7725 12.0806 59.6531 14.425 59.915 14.7993Z" fill="url(#paint0_linear)"/>
<path fill-rule="evenodd" clip-rule="evenodd" d="M41.1072 12.782V12.7401C41.1072 12.5357 41.09 12.3336 40.7537 12.3336H39.4843C39.1892 12.3336 39.1706 12.4961 39.1706 12.7487V14.4292C39.7885 13.5489 40.4737 13.14 41.1072 12.782ZM49.6233 18.8543V18.7641H49.6242V14.7194C49.6242 13.0232 48.8757 12.1752 47.3786 12.1754C46.9638 12.1715 46.556 12.2826 46.2008 12.4961C45.8444 12.7101 45.502 13.009 45.1736 13.3927C45.0122 12.9757 44.7687 12.6685 44.4433 12.4713C44.1178 12.2741 43.6961 12.1754 43.1782 12.1754C42.5787 12.1754 41.8818 12.3846 41.3878 12.7894C41.2772 12.8997 39.1703 14.5516 39.1703 16.2482V18.8377C39.1703 18.9201 39.1304 19.2325 39.4819 19.2325H40.8035C41.2143 19.2325 41.1742 18.9645 41.1742 18.8543V14.6662C41.3973 14.3714 41.8531 13.6435 42.5934 13.6435C42.8775 13.6435 43.0822 13.7393 43.2073 13.9309C43.3324 14.1224 43.3952 14.4437 43.3957 14.8945V18.1657H43.3942V18.8378C43.3942 18.9201 43.3543 19.2326 43.7056 19.2326H45.0103C45.4214 19.2326 45.3813 18.9646 45.3813 18.8544V18.7641H45.3828V14.6664C45.6219 14.3716 46.0981 13.6437 46.8017 13.6437C47.0911 13.6437 47.2999 13.7395 47.428 13.931C47.556 14.1226 47.62 14.4438 47.6198 14.8947V18.1658H47.6185V18.838C47.6185 18.9203 47.5788 19.2328 47.9304 19.2328H49.2524C49.6635 19.2326 49.6233 18.9645 49.6233 18.8543ZM56.9016 17.2098C56.4318 18.4692 55.3061 19.1729 53.9114 19.1729C51.8912 19.1729 50.5567 17.8016 50.5567 15.7449C50.5567 13.7129 51.942 12.2401 53.8485 12.2401C55.7345 12.2401 56.9993 13.5484 57.0797 15.656C57.0899 15.9253 57.0109 16.1632 56.6732 16.1632H52.3864C52.4119 17.2933 52.9589 17.9029 53.9244 17.9029C54.5133 17.9029 54.8622 17.65 55.166 17.1543C55.2981 16.9386 55.5689 16.9506 55.5689 16.9506H56.6732C56.8534 16.9505 56.9333 17.1259 56.9016 17.2097V17.2098ZM53.8485 13.5476C53.0472 13.5476 52.4881 14.1062 52.3864 15.0209H55.2588C55.1826 14.2209 54.7502 13.5476 53.8485 13.5476Z" fill="white"/>
<path fill-rule="evenodd" clip-rule="evenodd" d="M19.8901 10.3814C19.7203 10.1119 19.5 9.87737 19.2413 9.69074C18.9826 9.50966 18.6984 9.36768 18.398 9.2694C18.0644 9.16115 17.7198 9.08983 17.3705 9.05674C16.9708 9.01759 16.5695 8.99868 16.168 9.00007H12.6491C12.3326 9.00007 12.001 9.20709 12.001 9.59749V15.2815C12.4467 16.2288 13.3151 17.2346 14.3023 17.7152V16.588C14.3023 15.9931 14.752 15.8602 14.938 15.8602H15.9785C17.4117 15.8602 18.5055 15.5604 19.2601 14.9608C20.0146 14.362 20.3919 13.4727 20.3919 12.2926C20.394 11.9517 20.3543 11.6117 20.2737 11.2804C20.1935 10.9627 20.0641 10.6594 19.8901 10.3814ZM17.8395 13.3006C17.718 13.5106 17.5368 13.6801 17.3188 13.7878C17.0824 13.9001 16.8271 13.9675 16.566 13.9864C16.2816 14.0117 15.9879 14.0244 15.6849 14.0244H14.6962C14.4543 14.0244 14.3023 13.8283 14.3023 13.5389V11.215C14.3023 10.9544 14.4729 10.8451 14.6774 10.8451H15.6849C16.0131 10.8451 16.3209 10.8545 16.6083 10.8734C16.8669 10.8852 17.1209 10.9462 17.3565 11.0534C17.5665 11.1529 17.7403 11.3149 17.8539 11.517C17.9736 11.7249 18.0335 12.0182 18.0336 12.397C18.0336 12.7817 17.9689 13.0828 17.8395 13.3006ZM14.3023 18.0826C13.2165 17.6504 12.4886 17.1348 12.001 16.6237V19.3677C12.001 19.3677 11.9608 19.8152 12.3981 19.8152H13.9333C14.3544 19.8152 14.3025 19.3677 14.3025 19.3677V18.0826H14.3023ZM36.0593 11.9902H34.6815C34.4015 11.9902 34.217 12.1075 34.106 12.4142C33.9949 12.721 32.5345 16.7727 32.5345 16.7727C32.5345 16.7727 31.1375 12.8047 31.0276 12.4974C30.9177 12.1902 30.7371 11.9902 30.4119 11.9902H29.1459C28.6993 11.9902 28.6993 12.3397 28.7546 12.4783C28.7996 12.5903 30.5333 17.3239 31.1936 19.1272C31.3493 19.553 31.4108 19.6811 31.4156 19.8388C31.4205 19.9965 31.2595 20.3277 31.1482 20.5177C31.0972 20.6044 31.0385 20.6866 30.9729 20.7631C32.2675 20.377 33.7595 18.976 34.531 17.4583C35.294 15.3431 36.3001 12.549 36.3437 12.4061C36.4139 12.1746 36.4132 11.9902 36.0593 11.9902ZM29.9754 21.1656C29.8558 21.1635 29.7364 21.1549 29.6178 21.1398C29.4726 21.1207 29.2008 21.1477 29.2008 21.3848V22.4445C29.2008 22.8489 29.3949 22.8759 29.5018 22.8999C29.8233 22.9666 30.1512 22.9982 30.4796 22.994C30.9149 22.994 31.2936 22.9151 31.6158 22.7574C31.9412 22.597 32.2311 22.3734 32.4685 22.0998C32.7303 21.7952 32.9515 21.4582 33.1266 21.0972C33.319 20.7092 33.5036 20.2819 33.6806 19.8152C33.6806 19.8152 33.7564 19.6042 33.8813 19.2587C33.5013 19.6408 31.71 21.3329 29.9754 21.1656ZM27.9063 13.2482C27.8316 13.0711 27.7294 12.9068 27.6037 12.7611C27.4783 12.6213 27.3349 12.4987 27.1771 12.3966C27.0068 12.2864 26.8261 12.1929 26.6377 12.1175C26.4452 12.0426 26.2473 11.9826 26.0456 11.9379C25.8163 11.8879 25.5837 11.8547 25.3496 11.8386C25.0967 11.8198 24.8125 11.8104 24.497 11.8102C22.4097 11.8102 21.2212 12.4674 20.9314 13.7817C20.8372 14.1895 21.2422 14.2135 21.2422 14.2135H22.5262C22.8614 14.2135 22.847 14.1059 23.0097 13.8039C23.0682 13.6396 23.1737 13.4959 23.3131 13.3903C23.5595 13.2012 23.9288 13.1067 24.4211 13.1066C24.8948 13.1066 25.2388 13.198 25.4535 13.3807C25.668 13.5635 25.7943 13.841 25.8323 14.2135C25.8323 14.6453 25.6971 14.9335 25.173 14.9335C23.8953 14.8872 22.5223 15.0312 21.749 15.4729C20.9757 15.9145 20.5386 16.778 20.5386 17.7052C20.5386 18.0834 20.6064 18.4146 20.7422 18.6987C20.8738 18.9772 21.0683 19.2217 21.3106 19.4129C21.5676 19.6126 21.8622 19.759 22.177 19.8435C22.5348 19.9412 22.9044 19.9891 23.2754 19.9857C23.8311 19.9857 24.3221 19.9163 24.7483 19.7774C25.1744 19.6388 25.8339 19.1819 25.9178 19.1152V19.3588C25.9178 19.6002 25.9916 19.8155 26.2807 19.8155H27.7739C28.0761 19.8155 28.1433 19.6002 28.1433 19.3352V14.753C28.1459 14.4681 28.127 14.1835 28.0866 13.9015C28.0546 13.677 27.994 13.4575 27.9063 13.2482ZM25.8703 17.741C25.8703 17.741 25.4847 18.5388 24.1086 18.5388C23.73 18.5388 23.4222 18.4537 23.1853 18.2835C22.9483 18.1132 22.8299 17.8483 22.83 17.4886C22.83 17.0215 23.0226 16.6918 23.408 16.4995C23.7929 16.3073 24.5635 16.1975 25.141 16.211C25.7185 16.2244 25.8703 16.588 25.8703 16.8389V17.7412V17.741Z" fill="#333333"/>
<defs>
<linearGradient id="paint0_linear" x1="67.6276" y1="13.4079" x2="64.7006" y2="31.1549" gradientUnits="userSpaceOnUse">
<stop offset="0.47231" stop-color="#00CCCC"/>
<stop offset="1" stop-color="#3399FF"/>
</linearGradient>
</defs>
</svg>
