<svg width="73" height="32" viewBox="0 0 73 32" fill="none" xmlns="http://www.w3.org/2000/svg">
<rect x="0.97876" width="71.4894" height="32" rx="2" fill="white"/>
<g clip-path="url(#clip0)">
<path fill-rule="evenodd" clip-rule="evenodd" d="M20.6386 27.8413C28.1355 24.7793 38.6546 22.0038 52.5864 24.7829L52.7325 21.4151C38.0338 19.8856 27.4868 24.3473 20.6386 27.5093V27.8413Z" fill="#E7A83A"/>
<path fill-rule="evenodd" clip-rule="evenodd" d="M28.4785 18.961L31.7277 8.75042H34.6269L31.3775 18.961H28.4785ZM27.1825 8.75321L24.5746 13.0815C23.9107 14.2151 23.5226 14.7877 23.336 15.504H23.2963C23.3425 14.5959 23.2096 13.481 23.1971 12.8509L22.9091 8.75321H18.0289L17.9788 9.02785C19.2326 9.02785 19.9761 9.62811 20.1806 10.8559L21.1319 18.961H24.1353L30.2083 8.75321H27.1825ZM49.7281 18.961L49.6481 17.4424L46.0279 17.4397L45.2876 18.9608H42.1401L47.8472 8.76974H51.7106L52.677 18.9608L49.7281 18.961ZM49.3956 12.9381C49.3635 12.1835 49.3365 11.1592 49.3904 10.5394H49.3476C49.1712 11.0463 48.4133 12.5685 48.08 13.3171L47.0013 15.5552H49.5432L49.3956 12.9381ZM37.6705 19.2512C35.6237 19.2512 34.2654 18.6324 33.2956 18.0807L34.6767 16.0706C35.5472 16.5347 36.2307 17.0702 37.8034 17.0702C38.3091 17.0702 38.7964 16.9449 39.0731 16.4883C39.4764 15.8241 38.9801 15.4668 37.8475 14.8558L37.2883 14.5093C35.6095 13.4159 34.8833 12.3775 35.6736 10.5647C36.1793 9.40525 37.5132 8.52637 39.7136 8.52637C41.2311 8.52637 42.6537 9.15192 43.4827 9.76313L41.895 11.5378C41.0861 10.9143 40.4155 10.5988 39.6482 10.5988C39.0363 10.5988 38.5716 10.8236 38.4111 11.127C38.1091 11.6972 38.5087 12.0859 39.3909 12.6079L40.0559 13.011C42.0941 14.2362 42.5798 15.521 42.0689 16.7221C41.1904 18.7895 39.4701 19.2512 37.6705 19.2512ZM53.4701 10.3297H53.2791V9.22282H53.7198C54.0002 9.22282 54.1434 9.31642 54.1434 9.54107C54.1434 9.74143 54.014 9.82428 53.8402 9.843L54.1655 10.3297H53.9496L53.6496 9.85654H53.4701V10.3297ZM53.683 9.7014C53.8264 9.7014 53.9524 9.68805 53.9524 9.52753C53.9524 9.3939 53.8149 9.37776 53.7001 9.37776H53.4699V9.7014H53.683ZM53.6774 10.7575C53.0745 10.7575 52.6453 10.3271 52.6453 9.75756C52.6453 9.1559 53.1219 8.75759 53.6774 8.75759C54.2276 8.75759 54.7042 9.1559 54.7042 9.75756C54.7042 10.359 54.2276 10.7575 53.6774 10.7575ZM53.6774 8.93145C53.2231 8.93145 52.8697 9.27082 52.8697 9.75756C52.8697 10.212 53.1784 10.5837 53.6774 10.5837C54.1262 10.5837 54.4798 10.2469 54.4798 9.75756C54.4798 9.27082 54.1262 8.93145 53.6774 8.93145Z" fill="#1D5B99"/>
</g>
<defs>
<clipPath id="clip0">
<rect width="37" height="20" fill="white" transform="translate(17.9788 8)"/>
</clipPath>
</defs>
</svg>
