<svg width="49" height="60" viewBox="0 0 49 60" fill="none" xmlns="http://www.w3.org/2000/svg">
<g clip-path="url(#clip0)">
<path d="M40.9207 31.8761C41.0052 40.9561 48.9083 43.9777 48.9958 44.0161C48.929 44.2291 47.7331 48.3221 44.8321 52.5498C42.3243 56.2049 39.7217 59.8465 35.6217 59.9219C31.593 59.9959 30.2975 57.5396 25.6916 57.5396C21.0871 57.5396 19.6478 59.8466 15.8342 59.996C11.8766 60.1455 8.86289 56.0437 6.33442 52.4019C1.16758 44.9527 -2.78096 31.3523 2.52093 22.1718C5.15479 17.6128 9.8617 14.7258 14.9706 14.6517C18.8569 14.5778 22.5249 17.259 24.9007 17.259C27.275 17.259 31.7324 14.0346 36.4185 14.5082C38.3803 14.5896 43.887 15.2984 47.4229 20.4598C47.138 20.6359 40.8523 24.285 40.9207 31.8761ZM33.3492 9.5799C35.4503 7.04367 36.8645 3.513 36.4787 0C33.4501 0.121385 29.7879 2.01255 27.6156 4.54739C25.6687 6.79211 23.9638 10.3849 24.4238 13.8284C27.7995 14.0888 31.248 12.1177 33.3492 9.5799Z" fill="black"/>
</g>
<defs>
<clipPath id="clip0">
<rect width="49" height="60" fill="white"/>
</clipPath>
</defs>
</svg>
