<svg width="50" height="50" viewBox="0 0 50 50" fill="none" xmlns="http://www.w3.org/2000/svg">
<path fill-rule="evenodd" clip-rule="evenodd" d="M13.125 7.5C13.125 6.80964 13.6846 6.25 14.375 6.25C15.0654 6.25 15.625 6.80964 15.625 7.5H34.375C34.375 6.80964 34.9347 6.25 35.625 6.25C36.3153 6.25 36.875 6.80964 36.875 7.5H41.25C43.3211 7.5 45 9.17892 45 11.25V16.25V17.5V29.8242V40C45 42.0711 43.3211 43.75 41.25 43.75H8.75C6.67892 43.75 5 42.0711 5 40V29.8242V17.5V16.25V11.25C5 9.17892 6.67892 7.5 8.75 7.5H13.125ZM15.625 10H34.375V11.7274C33.9914 12.0708 33.75 12.5697 33.75 13.125C33.75 14.1605 34.5895 15 35.625 15C36.6605 15 37.5 14.1605 37.5 13.125C37.5 12.5697 37.2586 12.0708 36.875 11.7274V10H41.25C41.9403 10 42.5 10.5596 42.5 11.25V16.25H7.5V11.25C7.5 10.5596 8.05962 10 8.75 10H13.125V11.7274C12.7414 12.0708 12.5 12.5697 12.5 13.125C12.5 14.1605 13.3395 15 14.375 15C15.4105 15 16.25 14.1605 16.25 13.125C16.25 12.5697 16.0086 12.0708 15.625 11.7274V10ZM7.5 18.75V29.8242V40C7.5 40.6904 8.05962 41.25 8.75 41.25H41.25C41.9403 41.25 42.5 40.6904 42.5 40V29.8242V18.75H7.5ZM16.875 22.5C16.875 22.1548 17.1548 21.875 17.5 21.875H20C20.3452 21.875 20.625 22.1548 20.625 22.5V25C20.625 25.3452 20.3452 25.625 20 25.625H17.5C17.1548 25.625 16.875 25.3452 16.875 25V22.5ZM23.75 21.875C23.4048 21.875 23.125 22.1548 23.125 22.5V25C23.125 25.3452 23.4048 25.625 23.75 25.625H26.25C26.5952 25.625 26.875 25.3452 26.875 25V22.5C26.875 22.1548 26.5952 21.875 26.25 21.875H23.75ZM10.625 28.75C10.625 28.4048 10.9048 28.125 11.25 28.125H13.75C14.0952 28.125 14.375 28.4048 14.375 28.75V31.25C14.375 31.5952 14.0952 31.875 13.75 31.875H11.25C10.9048 31.875 10.625 31.5952 10.625 31.25V28.75ZM17.5 28.125C17.1548 28.125 16.875 28.4048 16.875 28.75V31.25C16.875 31.5952 17.1548 31.875 17.5 31.875H20C20.3452 31.875 20.625 31.5952 20.625 31.25V28.75C20.625 28.4048 20.3452 28.125 20 28.125H17.5ZM23.125 28.75C23.125 28.4048 23.4048 28.125 23.75 28.125H26.25C26.5952 28.125 26.875 28.4048 26.875 28.75V31.25C26.875 31.5952 26.5952 31.875 26.25 31.875H23.75C23.4048 31.875 23.125 31.5952 23.125 31.25V28.75ZM30 28.125C29.6548 28.125 29.375 28.4048 29.375 28.75V31.25C29.375 31.5952 29.6548 31.875 30 31.875H32.5C32.8452 31.875 33.125 31.5952 33.125 31.25V28.75C33.125 28.4048 32.8452 28.125 32.5 28.125H30ZM10.625 35C10.625 34.6548 10.9048 34.375 11.25 34.375H13.75C14.0952 34.375 14.375 34.6548 14.375 35V37.5C14.375 37.8452 14.0952 38.125 13.75 38.125H11.25C10.9048 38.125 10.625 37.8452 10.625 37.5V35ZM17.5 34.375C17.1548 34.375 16.875 34.6548 16.875 35V37.5C16.875 37.8452 17.1548 38.125 17.5 38.125H20C20.3452 38.125 20.625 37.8452 20.625 37.5V35C20.625 34.6548 20.3452 34.375 20 34.375H17.5ZM23.125 35C23.125 34.6548 23.4048 34.375 23.75 34.375H26.25C26.5952 34.375 26.875 34.6548 26.875 35V37.5C26.875 37.8452 26.5952 38.125 26.25 38.125H23.75C23.4048 38.125 23.125 37.8452 23.125 37.5V35ZM30 21.875C29.6548 21.875 29.375 22.1548 29.375 22.5V25C29.375 25.3452 29.6548 25.625 30 25.625H32.5C32.8452 25.625 33.125 25.3452 33.125 25V22.5C33.125 22.1548 32.8452 21.875 32.5 21.875H30ZM35.625 22.5C35.625 22.1548 35.9048 21.875 36.25 21.875H38.75C39.0952 21.875 39.375 22.1548 39.375 22.5V25C39.375 25.3452 39.0952 25.625 38.75 25.625H36.25C35.9048 25.625 35.625 25.3452 35.625 25V22.5ZM36.25 28.125C35.9048 28.125 35.625 28.4048 35.625 28.75V31.25C35.625 31.5952 35.9048 31.875 36.25 31.875H38.75C39.0952 31.875 39.375 31.5952 39.375 31.25V28.75C39.375 28.4048 39.0952 28.125 38.75 28.125H36.25Z" fill="#306BF5"/>
</svg>
