<svg width="50" height="50" viewBox="0 0 50 50" fill="none" xmlns="http://www.w3.org/2000/svg">
<path fill-rule="evenodd" clip-rule="evenodd" d="M1.875 11.9758C1.875 9.90472 3.55393 8.22578 5.625 8.22578H44.375C46.4461 8.22578 48.125 9.90472 48.125 11.9758V38.0242C48.125 40.0952 46.4461 41.7742 44.375 41.7742H5.625C3.55393 41.7742 1.875 40.0952 1.875 38.0242V11.9758ZM5.625 10.7258C4.93465 10.7258 4.375 11.2854 4.375 11.9758V15.2822H45.625V11.9758C45.625 11.2854 45.0654 10.7258 44.375 10.7258H5.625ZM4.375 21.633V17.7822H45.625V21.633H4.375ZM4.375 24.133V38.0242C4.375 38.7145 4.93464 39.2742 5.625 39.2742H44.375C45.0654 39.2742 45.625 38.7145 45.625 38.0242V24.133H4.375ZM10.5991 31.6702C9.73063 31.6702 9.02657 32.3743 9.02657 33.2428C9.02657 34.1113 9.73063 34.8153 10.5991 34.8153C11.4677 34.8153 12.1717 34.1113 12.1717 33.2428C12.1717 32.3743 11.4677 31.6702 10.5991 31.6702ZM6.52657 33.2428C6.52657 30.9935 8.34992 29.1702 10.5991 29.1702C12.8484 29.1702 14.6717 30.9935 14.6717 33.2428C14.6717 35.492 12.8484 37.3153 10.5991 37.3153C8.34992 37.3153 6.52657 35.492 6.52657 33.2428ZM34.6323 33.3546C34.2872 33.3546 34.0073 33.6344 34.0073 33.9796V35.4639C34.0073 35.8091 34.2872 36.0889 34.6323 36.0889H41.8501C42.1953 36.0889 42.4751 35.8091 42.4751 35.4639V33.9796C42.4751 33.6344 42.1953 33.3546 41.8501 33.3546H34.6323Z" fill="#306BF5"/>
</svg>
