<svg width="20" height="20" viewBox="0 0 20 20" fill="none" xmlns="http://www.w3.org/2000/svg">
<path fill-rule="evenodd" clip-rule="evenodd" d="M0 4.26154C0 3.70925 0.447716 3.26154 1 3.26154H12.9851C13.5374 3.26154 13.9851 3.70925 13.9851 4.26154V5.44457H17.2458C17.5341 5.44457 17.8085 5.56905 17.9983 5.78606L19.7526 7.7909C19.9121 7.97319 20 8.20718 20 8.4494V13.2173C20 13.7696 19.5523 14.2173 19 14.2173H18.5519C18.5485 15.6103 17.4183 16.7385 16.0245 16.7385C15.1166 16.7385 14.3205 16.2597 13.8749 15.5408H7.16863C6.72302 16.2597 5.9269 16.7385 5.01896 16.7385C3.62314 16.7385 2.49161 15.6069 2.49161 14.2111C2.49161 14.15 2.49378 14.0894 2.49804 14.0294H0.999999C0.447714 14.0294 0 13.5817 0 13.0294V4.26154ZM19 13.2173H18.349C17.963 12.3155 17.0675 11.6838 16.0245 11.6838C15.1872 11.6838 14.445 12.0909 13.9851 12.7181V6.44457H17.2458L19 8.4494V13.2173ZM13.4851 14.0294H13.5036C13.4994 14.0894 13.4972 14.15 13.4972 14.2111C13.4972 14.3229 13.5044 14.4329 13.5185 14.5408H7.52499C7.53905 14.4329 7.5463 14.3229 7.5463 14.2111C7.5463 14.15 7.54414 14.0894 7.53987 14.0294H13.4851ZM12.9851 13.0294H7.2536C6.82946 12.229 5.98788 11.6838 5.01896 11.6838C4.05003 11.6838 3.20845 12.229 2.78431 13.0294H1V4.26154L12.9851 4.26154L12.9851 13.0294ZM14.5709 7.55214C14.5709 7.28981 14.7836 7.07715 15.0459 7.07715H16.8424C16.9819 7.07715 17.1144 7.13846 17.2046 7.24483L18.2444 8.47024C18.3172 8.55608 18.3572 8.66499 18.3572 8.77756L18.3572 9.42949C18.3571 9.69182 18.1445 9.90448 17.8822 9.90448H15.0459C14.7836 9.90448 14.5709 9.69182 14.5709 9.42948L14.5709 7.55214ZM15.4709 7.97715L15.4709 9.00448H17.4572V8.93356L16.6457 7.97715H15.4709ZM5.01896 12.6838C4.17542 12.6838 3.49161 13.3676 3.49161 14.2111C3.49161 15.0546 4.17542 15.7385 5.01896 15.7385C5.86249 15.7385 6.5463 15.0546 6.5463 14.2111C6.5463 13.3676 5.86249 12.6838 5.01896 12.6838ZM5.04215 14.9397C5.43565 14.9397 5.75465 14.6207 5.75465 14.2272C5.75465 13.8337 5.43565 13.5147 5.04215 13.5147C4.64865 13.5147 4.32965 13.8337 4.32965 14.2272C4.32965 14.6207 4.64865 14.9397 5.04215 14.9397ZM16.0245 12.6838C15.181 12.6838 14.4972 13.3676 14.4972 14.2111C14.4972 15.0546 15.181 15.7385 16.0245 15.7385C16.8681 15.7385 17.5519 15.0546 17.5519 14.2111C17.5519 13.3676 16.8681 12.6838 16.0245 12.6838ZM16.0245 14.9397C16.418 14.9397 16.737 14.6207 16.737 14.2272C16.737 13.8337 16.418 13.5147 16.0245 13.5147C15.631 13.5147 15.312 13.8337 15.312 14.2272C15.312 14.6207 15.631 14.9397 16.0245 14.9397Z" fill="#35A053"/>
</svg>
