<svg width="200" height="140" viewBox="0 0 200 140" fill="none" xmlns="http://www.w3.org/2000/svg">
<g clip-path="url(#clip0)">
<path fill-rule="evenodd" clip-rule="evenodd" d="M43.1945 55.3936C41.8252 53.7776 42.1827 51.4912 43.9967 50.2623L72.8499 30.7162L73.0663 30.5696L73.2593 30.3994L92.3035 13.6045L96.9169 9.53589L109.967 50.433L106.937 49.9276L107.05 49.7669L88.7012 39.7587C84.9153 37.6938 80.5512 41.5323 82.8826 44.8765L107.988 80.8871L83.6152 96.9384C81.7654 98.1566 79.1462 97.8222 77.7643 96.1913L43.1945 55.3936ZM112.244 57.5674L102.696 55.9749L102.652 56.0387L102.463 55.936L100.139 55.5482L105.706 63.5335L114.801 65.5811L112.244 57.5674ZM117.156 72.9611L111.37 71.6585L117.112 79.8945L119.112 82.7643L116.052 84.78L88.6186 102.847C83.0694 106.502 75.2117 105.498 71.0659 100.606L36.4961 59.808C32.3883 54.9601 33.4606 48.1008 38.9028 44.4141L67.5395 25.0147L86.3906 8.38994L94.3198 1.39723L94.2216 1.08947C93.2332 -2.00771 95.8794 -5.84107 100.383 -5.27118C100.816 -5.21641 101.241 -5.15058 101.657 -5.07386L105.837 -8.76004C108.525 -11.1302 112.286 -12.2978 116.065 -11.9349L153.222 -8.36579C159.074 -7.80366 163.696 -3.72794 164.333 1.43312L168.38 34.2018C168.792 37.5341 167.468 40.8512 164.78 43.2214L149.185 56.9743L156.591 58.2095C157.26 56.6396 158.165 55.1207 159.314 53.6926C166.516 44.7362 180.588 42.6246 190.743 48.9762C201.055 55.425 202.389 67.8512 196.543 76.2564C194.118 79.7433 190.407 82.6826 184.997 84.1729C179.67 85.6399 173.016 85.6168 164.786 83.7677L164.772 83.7645L145.816 79.4369L151.416 93.1754C154.238 99.5637 154.98 104.974 153.986 109.563C152.978 114.22 150.254 117.706 146.846 120.289C137.344 127.49 122.641 126.221 114.577 117.946C106.462 109.619 107.539 97.0664 116.982 89.9101C118.446 88.8004 120.029 87.8843 121.688 87.1605L117.156 72.9611ZM142.736 71.8777L166.644 77.3361L166.651 77.3377C174.013 78.9909 179.168 78.8252 182.753 77.8377C186.255 76.873 188.557 75.0451 190.128 72.7861C194.217 66.9065 193 58.5241 186.39 54.39C179.625 50.1588 170.251 51.5655 165.453 57.5319C164.172 59.125 163.35 60.874 162.957 62.6637L162.244 65.9071L158.563 65.2931L138.702 61.9804L142.736 71.8777ZM135.748 54.7331L139.241 55.3156L158.867 38.0068C159.763 37.2168 160.204 36.1111 160.067 35.0003L156.02 2.2316C155.808 0.511242 154.267 -0.847325 152.316 -1.0347L115.159 -4.6038C113.9 -4.72478 112.646 -4.33558 111.75 -3.54552L109.622 -1.6688C112.125 0.199242 114.16 2.71919 115.793 5.81019L115.865 5.94713L115.923 6.08931L135.748 54.7331ZM137.515 12.2409C137.515 10.6246 139.001 9.31433 140.834 9.31433C142.667 9.31433 144.152 10.6246 144.152 12.2409C144.152 13.8573 142.667 15.1675 140.834 15.1675C139.001 15.1675 137.515 13.8573 137.515 12.2409ZM140.834 1.93988C134.383 1.93988 129.153 6.55182 129.153 12.2409C129.153 17.9301 134.383 22.542 140.834 22.542C147.285 22.542 152.514 17.9301 152.514 12.2409C152.514 6.55182 147.285 1.93988 140.834 1.93988ZM177.68 62.9984C176.097 62.9984 174.814 64.1302 174.814 65.5264C174.814 66.9225 176.097 68.0543 177.68 68.0543C179.263 68.0543 180.547 66.9225 180.547 65.5264C180.547 64.1302 179.263 62.9984 177.68 62.9984ZM167.288 65.5264C167.288 60.4647 171.941 56.3614 177.68 56.3614C183.42 56.3614 188.073 60.4647 188.073 65.5264C188.073 70.588 183.42 74.6913 177.68 74.6913C171.941 74.6913 167.288 70.588 167.288 65.5264ZM129.014 105.064C129.014 103.587 130.371 102.39 132.045 102.39C133.719 102.39 135.076 103.587 135.076 105.064C135.076 106.54 133.719 107.737 132.045 107.737C130.371 107.737 129.014 106.54 129.014 105.064ZM132.045 95.7534C126.214 95.7534 121.488 99.9217 121.488 105.064C121.488 110.206 126.214 114.374 132.045 114.374C137.875 114.374 142.602 110.206 142.602 105.064C142.602 99.9217 137.875 95.7534 132.045 95.7534ZM108.9 8.48076C107.069 5.06649 104.927 3.07648 102.348 2.05532L129.849 88.2349L130.848 91.3679L127.316 92.3103C125.38 92.8267 123.529 93.6994 121.887 94.9438C115.596 99.7111 114.879 108.073 120.285 113.62C125.742 119.22 135.709 119.979 141.941 115.256C144.261 113.497 145.952 111.285 146.594 108.319C147.248 105.297 146.88 101.176 144.387 95.5474L144.368 95.5051L144.351 95.4624L108.9 8.48076Z" fill="white" fill-opacity="0.2"/>
</g>
<defs>
<clipPath id="clip0">
<rect width="200" height="140" fill="white"/>
</clipPath>
</defs>
</svg>
