<svg width="80" height="80" viewBox="0 0 80 80" fill="none" xmlns="http://www.w3.org/2000/svg">
<path d="M0 0H80V80H0V0Z" fill="white"/>
<path d="M21.9879 56.3802C31.034 56.3802 38.368 49.0466 38.368 40.0005C38.368 30.9545 31.0344 23.6208 21.9879 23.6208C12.9415 23.6208 5.60785 30.9545 5.60785 40.0005C5.60785 49.0466 12.9415 56.3802 21.9879 56.3802Z" fill="#A70B52"/>
<path d="M25.9766 45.7644H22.5846V32.9441H21.3266V47.0294H22.5846V47.0211H25.9766V45.7644Z" fill="white"/>
<path d="M34.4431 40.5248H25.9963V39.2668H35.6803C35.6931 39.51 35.6994 39.7536 35.6994 40.0002C35.6994 47.5733 29.5602 53.712 21.9875 53.712C14.4148 53.712 8.27569 47.5733 8.27569 40.0002C8.27569 32.4271 14.4148 26.2883 21.9879 26.2883C22.1876 26.2883 22.3868 26.2925 22.5848 26.3012L22.5831 27.5496C22.3848 27.5405 22.1864 27.5359 21.9879 27.5359C15.1042 27.5359 9.52328 33.1164 9.52328 40.0002C9.52328 46.8843 15.1038 52.4644 21.9879 52.4644C28.6841 52.4644 34.1467 47.1844 34.4397 40.5601L34.4431 40.5248Z" fill="white"/>
<path d="M16.8731 36.7393C17.3841 36.7393 17.8742 36.5363 18.2355 36.175C18.5969 35.8136 18.7999 35.3235 18.7999 34.8125C18.7999 34.3015 18.5969 33.8114 18.2355 33.4501C17.8742 33.0887 17.3841 32.8857 16.8731 32.8857C16.3621 32.8857 15.872 33.0887 15.5106 33.4501C15.1493 33.8114 14.9463 34.3015 14.9463 34.8125C14.9463 35.3235 15.1493 35.8136 15.5106 36.175C15.872 36.5363 16.3621 36.7393 16.8731 36.7393Z" fill="white"/>
<path d="M46.5015 48.0396H58.2058V44.5047H50.7987V31.8471H46.5015V48.0396ZM72.3472 32.9872C71.0054 31.9475 69.2776 31.4204 67.2157 31.4204C64.7674 31.4204 62.7217 32.1724 61.2994 33.5935C59.8149 35.0789 59.0288 37.267 59.0288 39.9211C59.0288 42.7566 59.8597 45.1493 61.3683 46.6567C62.5528 47.8408 64.1308 48.4654 65.9366 48.4654C69.9005 48.4654 70.8124 46.0893 70.8124 46.0893V48.0387H74.392V38.8939H67.2663V41.7555H70.5459C70.5459 41.7555 70.5775 45.3584 67.1925 45.3584C66.3325 45.3584 65.5664 45.0463 64.977 44.457C64.0586 43.5394 63.573 41.9929 63.573 39.9883C63.573 36.6681 64.8928 34.6859 67.1024 34.6859C68.4828 34.6859 69.5204 35.5334 69.7864 36.8179H74.3451C74.109 34.9515 73.5968 33.9787 72.3472 32.9872Z" fill="#808183"/>
</svg>
