<svg width="187" height="27" viewBox="0 0 187 27" fill="none" xmlns="http://www.w3.org/2000/svg">
<path fill-rule="evenodd" clip-rule="evenodd" d="M102.544 12.5375C102.544 12.5375 100.725 11.4282 99.5995 10.9989C99.5995 10.9989 96.1172 9.40737 95.4263 8.65015C95.4263 8.65015 94.0691 7.38888 94.8638 5.92392C94.8638 5.92392 95.1964 4.96531 96.6307 4.96531C96.6307 4.96531 98.4979 5.06658 98.4979 6.57987V8.71459H105.189L105.178 5.57063C105.178 5.57063 105.692 0.421993 97.2959 0.195287C97.2959 0.195287 90.6918 -0.232813 88.7977 3.2748C88.7977 3.2748 88.0544 4.05734 88.0544 6.78241V8.75142C88.0544 8.75142 87.9785 11.0231 89.1548 12.4869C89.1548 12.4869 89.82 13.4466 91.4585 14.5054C91.4585 14.5054 94.7856 16.2718 96.7824 17.2834C96.7824 17.2834 98.7978 18.4181 98.5329 20.2237C98.5329 20.2237 98.3683 22.0776 96.4218 22.0016C96.4218 22.0016 94.6421 21.9234 94.6421 20.1051V17.9716H87.5117V21.0706C87.5117 21.0706 87.3121 26.9972 96.4743 26.9972C96.4743 26.9972 105.229 27.1721 105.638 20.9153V18.3916C105.636 18.3916 105.947 14.5572 102.544 12.5375ZM68.2853 0.932943L66.0446 14.7793H65.5207L63.3804 1.05723H52.2028L51.6426 26.1318H58.2607L58.3401 7.23928H58.8606L62.3686 26.1284H69.3309L72.7958 7.24618H73.2567L73.4166 26.1318H80.0697L79.3532 0.932943H68.2853ZM28.8895 1.03767L24.4864 26.103H31.611L34.2193 6.66849H34.8051L37.4122 26.103H44.5356L40.1336 1.03767H28.8895ZM178.385 12.1923V15.8898H180.213V19.8589C180.213 21.7991 178.531 21.8348 178.531 21.8348C176.486 21.8348 176.563 19.9912 176.563 19.9912V6.26225C176.563 4.84793 178.378 4.77198 178.378 4.77198C180.119 4.77198 180.131 6.45904 180.131 6.45904V8.54657H186.839C187.058 4.47162 186.234 3.4854 186.234 3.4854C184.57 -0.199432 178.275 0.00195533 178.275 0.00195533C168.602 0.00195533 169.676 7.32099 169.676 7.32099V20.5954C169.884 27.4598 179.416 26.7624 179.577 26.7567C183.816 26.2941 185.097 24.9649 185.097 24.9649C186.275 24.1018 186.579 22.9061 186.579 22.9061C186.916 22.2099 187 19.9912 187 19.9912V12.1923H178.385ZM156.15 16.2718H155.858L149.051 0.939844H140.907V26.1341H147.535L147.139 10.8044H147.435L154.487 26.1341H162.384V0.937544H155.672L156.15 16.2718ZM124.726 19.8566C124.726 19.8566 124.822 21.9245 122.878 21.9245C122.878 21.9245 120.833 22.0327 120.833 19.9083L120.812 0.954805H113.542V19.7576C113.542 19.7576 112.796 26.8741 122.98 26.8741C122.98 26.8741 131.831 26.9776 131.831 20.0844V0.955955H124.726V19.8566ZM15.029 12.5375C15.029 12.5375 13.212 11.4282 12.0858 11.0001C12.0858 11.0001 8.60584 9.40967 7.91498 8.6513C7.91498 8.6513 6.55775 7.38773 7.35365 5.92622C7.35365 5.92622 7.68507 4.96761 9.11816 4.96761C9.11816 4.96761 10.9865 5.06773 10.9865 6.58102V8.71574H17.6805L17.6676 5.57063C17.6676 5.57063 18.1788 0.421993 9.78568 0.196438C9.78568 0.196438 9.15317 0.156157 8.2254 0.202188C8.2254 0.202188 3.14076 0.471474 1.32257 3.22186C1.31206 3.24258 1.29689 3.25754 1.28639 3.27596C1.28639 3.27596 0.544174 4.05734 0.544174 6.78356V8.75257C0.544174 8.75257 0.46715 11.0242 1.64466 12.488C1.64466 12.488 2.30985 13.4478 3.94833 14.5065C3.94833 14.5065 7.27429 16.273 9.27103 17.2845C9.27103 17.2845 11.2888 18.4169 11.0215 20.2248C11.0215 20.2248 10.857 22.0787 8.9116 22.0028C8.9116 22.0028 7.13191 21.9245 7.13191 20.1063V17.9716H0.000347721V21.0729C0.000347721 21.0729 -0.199209 26.9995 8.96294 26.9995C8.96294 26.9995 17.7155 27.1744 18.1274 20.9176V18.3962C18.1274 18.3939 18.4332 14.5572 15.029 12.5375Z" fill="black"/>
</svg>
