<svg width="30" height="30" viewBox="0 0 30 30" fill="none" xmlns="http://www.w3.org/2000/svg">
<path fill-rule="evenodd" clip-rule="evenodd" d="M5.04849 18.8371C1.24088 15.0295 1.24088 8.8561 5.04849 5.04849C8.8561 1.24088 15.0295 1.24088 18.8371 5.04849C22.6447 8.8561 22.6447 15.0295 18.8371 18.8371C15.0295 22.6447 8.8561 22.6447 5.04849 18.8371ZM3.98783 3.98783C-0.40557 8.38123 -0.40557 15.5043 3.98783 19.8977C7.7421 23.652 13.4897 24.1982 17.8239 21.5362L19.1022 22.8145L19.6326 23.3449L24.9359 28.6482C25.8146 29.5268 27.2392 29.5268 28.1179 28.6482L28.6482 28.1178C29.5269 27.2392 29.5269 25.8145 28.6482 24.9359L23.3449 19.6326L22.8146 19.1022L21.5362 17.8239C24.1982 13.4896 23.652 7.7421 19.8977 3.98783C15.5043 -0.40557 8.38123 -0.40557 3.98783 3.98783ZM20.654 19.063C20.4183 19.3506 20.1662 19.6292 19.8977 19.8977C19.6293 20.1662 19.3506 20.4183 19.063 20.6539L19.6326 21.2235L21.2236 19.6326L20.654 19.063ZM22.2842 20.6932L20.6932 22.2842L25.9965 27.5875C26.2894 27.8804 26.7643 27.8804 27.0572 27.5875L27.5875 27.0572C27.8804 26.7643 27.8804 26.2894 27.5875 25.9965L22.2842 20.6932ZM6.90466 16.9809C4.12217 14.1984 4.12217 9.68713 6.90466 6.90464C9.68715 4.12216 14.1984 4.12216 16.9809 6.90464C19.7634 9.68713 19.7634 14.1984 16.9809 16.9809C14.1984 19.7634 9.68715 19.7634 6.90466 16.9809ZM5.844 5.84398C2.47573 9.21226 2.47573 14.6733 5.844 18.0416C9.21227 21.4098 14.6733 21.4098 18.0416 18.0416C21.4099 14.6733 21.4099 9.21226 18.0416 5.84398C14.6733 2.47571 9.21227 2.47571 5.844 5.84398Z" fill="#306BF5"/>
</svg>
