<svg width="50" height="50" viewBox="0 0 50 50" fill="none" xmlns="http://www.w3.org/2000/svg">
<path fill-rule="evenodd" clip-rule="evenodd" d="M11.5048 7.66207C10.7421 5.04694 7.95942 3.58896 5.37511 4.45039C2.85862 5.28922 1.49861 8.00925 2.33744 10.5257L2.74094 11.7363C2.95925 12.3912 3.66715 12.7451 4.32208 12.5268C4.97701 12.3085 5.33096 11.6006 5.11265 10.9457L4.70915 9.73518C4.30693 8.52854 4.95905 7.22431 6.16568 6.8221C7.40483 6.40905 8.73909 7.10814 9.10482 8.36207L17.2517 36.2942C15.18 37.2314 13.7385 39.3165 13.7385 41.7382C13.7385 45.0365 16.4123 47.7104 19.7106 47.7104C23.009 47.7104 25.6828 45.0365 25.6828 41.7382C25.6828 41.5537 25.6744 41.3712 25.658 41.191L44.2049 35.7147C45.5261 35.3246 46.2827 33.9393 45.897 32.617L40.6247 14.5427C40.2345 13.2049 38.8257 12.4444 37.4931 12.8522L26.8213 16.1184L24.2707 7.67221C23.8745 6.36028 22.496 5.61186 21.1799 5.9942L11.8122 8.71579L11.5048 7.66207ZM19.7106 35.7661L19.7018 35.7661L15.7298 22.1477L38.2247 15.2428L43.497 33.317L24.9135 38.8041C23.8885 36.9904 21.9426 35.7661 19.7106 35.7661ZM21.8774 8.39494L24.4307 16.85L21.3276 17.7997L18.7609 9.30035L21.8774 8.39494ZM16.3601 9.99787L18.937 18.5314L15.0243 19.7289L12.5122 11.1158L16.3601 9.99787ZM36.0546 19.863C36.1543 20.1937 35.9669 20.5426 35.6361 20.642L31.8202 21.789C31.4899 21.8883 31.1415 21.7012 31.0419 21.3709L30.6962 20.2243C30.5965 19.8936 30.7839 19.5447 31.1147 19.4453L34.9306 18.2983C35.261 18.199 35.6093 18.3862 35.7089 18.7164L36.0546 19.863ZM19.7106 38.2661C17.793 38.2661 16.2385 39.8206 16.2385 41.7382C16.2385 43.6558 17.793 45.2104 19.7106 45.2104C21.6283 45.2104 23.1828 43.6558 23.1828 41.7382C23.1828 39.8206 21.6283 38.2661 19.7106 38.2661ZM19.7106 43.3123C20.5799 43.3123 21.2846 42.6075 21.2846 41.7382C21.2846 40.8689 20.5799 40.1642 19.7106 40.1642C18.8413 40.1642 18.1366 40.8689 18.1366 41.7382C18.1366 42.6075 18.8413 43.3123 19.7106 43.3123Z" fill="#306BF5"/>
</svg>
